<svg width="1920" height="1607" viewBox="0 0 1920 1607" fill="none" xmlns="http://www.w3.org/2000/svg">
<path d="M303 460.5C30.2001 525.7 -113.333 617.667 -151 655.5C-265.833 788 -506.8 1085.7 -552 1216.5C-608.5 1380 -467 1504 -350 1571.5C-233 1639 -93.9999 1585.5 58.5001 1482.5C211 1379.5 154 1323 271.5 1216.5C389 1110 456 1131 551.5 1085C647 1039 676 1014 832 929C988 844 984.5 911 1158.5 911C1332.5 911 1364.5 936 1456.5 911C1548.5 886 1655.5 726.5 1847 691C2038.5 655.5 2063.5 616.5 2127.5 577.5C2191.5 538.5 2436 407 2500 329C2564 251 2567.5 70 2532 2.5C2496.5 -65 2369 -157 2237.5 -207C2106 -257 1992.5 -196 1875.5 -182C1758.5 -168 1641 -128.5 1495.5 41.5C1350 211.5 1318.5 233.5 1240 283C1161.5 332.5 1013 336 832 350.5C651 365 644 379 303 460.5Z" fill="url(#paint0_linear_335_7)" stroke="black" stroke-width="9"/>
<defs>
<linearGradient id="paint0_linear_335_7" x1="-100.5" y1="750" x2="2186" y2="3.00005" gradientUnits="userSpaceOnUse">
<stop stop-color="#56FFA4"/>
<stop offset="0.9999" stop-color="#0578FF"/>
<stop offset="1" stop-color="#9105FF"/>
</linearGradient>
</defs>
</svg>
