<svg width="1172" height="1248" viewBox="0 0 1172 1248" fill="none" xmlns="http://www.w3.org/2000/svg">
<path d="M90.5426 37.7756L-108.337 114.825C-156.745 133.579 -197.509 168.473 -220.251 215.14C-277.55 332.721 -339.516 495.217 -292.254 540.849C-219.754 610.849 -29.2536 663.849 48.7464 800.349C126.746 936.849 34.7464 1166.35 146.746 1233.35C258.746 1300.35 562.746 998.849 766.746 1063.35C970.746 1127.85 1037.75 820.349 1115.75 736.349C1193.75 652.349 1185.75 451.349 1076.75 440.349C967.746 429.349 861.746 160.849 828.246 60.349C802.587 -16.6298 382.224 2.61495 148.721 23.9941C128.733 25.8241 109.259 30.5247 90.5426 37.7756Z" fill="#B28DFF" stroke="black" stroke-width="9"/>
</svg>
